<svg width="37" height="29" viewBox="0 0 37 29" fill="none" xmlns="http://www.w3.org/2000/svg">
<path id="&#226;&#128;&#156;" d="M28.9452 28.4414C27.4272 28.4414 26.102 28.1953 24.9695 27.7031C23.8611 27.1875 22.9455 26.5078 22.2227 25.6641C21.4998 24.8203 20.9577 23.8359 20.5963 22.7109C20.2348 21.5859 20.0541 20.3906 20.0541 19.125C20.0541 16.5938 20.4396 14.3086 21.2107 12.2695C22.0058 10.207 23.0299 8.39062 24.2828 6.82031C25.5357 5.22656 26.9212 3.86719 28.4392 2.74219C29.9813 1.59375 31.4992 0.679688 32.9931 0L34.0413 1.37109C31.9209 3.31641 30.2342 5.05078 28.9813 6.57422C27.7284 8.07422 27.1019 9.32812 27.1019 10.3359C27.1019 10.9453 27.3669 11.4375 27.897 11.8125C28.4271 12.1875 29.0777 12.5273 29.8487 12.832C30.5957 13.1133 31.3788 13.4297 32.198 13.7812C33.0172 14.1328 33.7642 14.6016 34.4388 15.1875C35.1376 15.75 35.7038 16.4648 36.1375 17.332C36.5953 18.1992 36.8242 19.3008 36.8242 20.6367C36.8242 21.4336 36.6556 22.2891 36.3182 23.2031C36.005 24.1172 35.511 24.9609 34.8364 25.7344C34.1858 26.5078 33.3666 27.1523 32.3787 27.668C31.3908 28.1836 30.2463 28.4414 28.9452 28.4414ZM9.06682 28.4414C7.54884 28.4414 6.22362 28.1953 5.09115 27.7031C3.98279 27.1875 3.06718 26.5078 2.34433 25.6641C1.62148 24.8203 1.07934 23.8359 0.717918 22.7109C0.356493 21.5859 0.175781 20.3906 0.175781 19.125C0.175781 16.5938 0.561301 14.3086 1.33234 12.2695C2.12747 10.207 3.15151 8.39062 4.40445 6.82031C5.65739 5.22656 7.04285 3.86719 8.56083 2.74219C10.1029 1.59375 11.6209 0.679688 13.1148 0L14.1629 1.37109C12.0426 3.31641 10.3559 5.05078 9.10296 6.57422C7.85003 8.07422 7.22356 9.32812 7.22356 10.3359C7.22356 10.9453 7.4886 11.4375 8.01869 11.8125C8.54878 12.1875 9.19934 12.5273 9.97038 12.832C10.7173 13.1133 11.5004 13.4297 12.3196 13.7812C13.1389 14.1328 13.8858 14.6016 14.5605 15.1875C15.2592 15.75 15.8255 16.4648 16.2592 17.332C16.717 18.1992 16.9459 19.3008 16.9459 20.6367C16.9459 21.4336 16.7772 22.2891 16.4399 23.2031C16.1266 24.1172 15.6327 24.9609 14.958 25.7344C14.3075 26.5078 13.4882 27.1523 12.5004 27.668C11.5125 28.1836 10.368 28.4414 9.06682 28.4414Z" fill="#713f87"/>
</svg>
